# xmcd
#
# Track frame offsets: 
#        150
#        40570
#        74732
#        96027
#        115075
#        145880
#        184365
#        206222
#        224327
#        247670
#        299810
#
# Disc length: 4111 seconds
#
# Revision: 10
# Processed by: cddbd v1.5.2PL0 Copyright (c) Steve Scherf et al.
# Submitted via: ExactAudioCopy v0.95a5
#
DISCID=b0100d0b
DTITLE=Al Di Meola - Splendido Hotel
DYEAR=1980
DGENRE=Fusion
TTITLE0=Alien Chase On Arabian Desert
TTITLE1=Silent Story In Her Eyes
TTITLE2=Roller Jubilee
TTITLE3=Two To Tango
TTITLE4=Al Di's Dream Theme
TTITLE5=Dinner Music Of The Gods
TTITLE6=Splendido Sundance
TTITLE7=I Can Tell
TTITLE8=Spanish Eyes
TTITLE9=Isfahan
TTITLE10=Bianca's Midnight Lullaby
EXTD=YEAR: 1980
EXTT0=
EXTT1=
EXTT2=
EXTT3=
EXTT4=
EXTT5=
EXTT6=
EXTT7=
EXTT8=
EXTT9=
EXTT10=
PLAYORDER=
